<mxfile host="app.diagrams.net" agent="Mozilla/5.0 (Macintosh; Intel Mac OS X 10_15_7) AppleWebKit/537.36 (KHTML, like Gecko) Chrome/139.0.0.0 Safari/537.36" version="28.2.0">
  <diagram name="Page-1" id="bfe91b75-5d2c-26a0-9c1d-138518896778">
    <mxGraphModel dx="2197" dy="726" grid="1" gridSize="10" guides="1" tooltips="1" connect="1" arrows="1" fold="1" page="1" pageScale="1" pageWidth="1100" pageHeight="850" background="none" math="0" shadow="0">
      <root>
        <mxCell id="0" />
        <mxCell id="1" parent="0" />
        <mxCell id="HNdejGxliRvac_R6TdOd-2" value="" style="rounded=1;whiteSpace=wrap;html=1;arcSize=6;" vertex="1" parent="1">
          <mxGeometry x="850" y="820" width="620" height="680" as="geometry" />
        </mxCell>
        <mxCell id="S_OwnUnUDvWFl5J13V23-35" value="" style="shape=ext;double=1;rounded=1;whiteSpace=wrap;html=1;" parent="1" vertex="1">
          <mxGeometry x="-260" y="690" width="630" height="160" as="geometry" />
        </mxCell>
        <mxCell id="S_OwnUnUDvWFl5J13V23-25" value="" style="shape=ext;double=1;rounded=1;whiteSpace=wrap;html=1;" parent="1" vertex="1">
          <mxGeometry x="-250" y="1310" width="630" height="180" as="geometry" />
        </mxCell>
        <mxCell id="S_OwnUnUDvWFl5J13V23-7" value="" style="rounded=1;whiteSpace=wrap;html=1;" parent="1" vertex="1">
          <mxGeometry x="1620" y="730" width="450" height="250" as="geometry" />
        </mxCell>
        <mxCell id="7c3789c024ecab99-55" style="edgeStyle=none;html=1;labelBackgroundColor=none;endArrow=none;endFill=0;strokeWidth=2;fontFamily=Verdana;fontSize=28;fontColor=#6881B3;" parent="1" source="7c3789c024ecab99-8" edge="1">
          <mxGeometry relative="1" as="geometry">
            <mxPoint x="1940" y="896.9999999999998" as="targetPoint" />
          </mxGeometry>
        </mxCell>
        <mxCell id="7c3789c024ecab99-8" value="" style="fontColor=#0066CC;verticalAlign=top;verticalLabelPosition=bottom;labelPosition=center;align=center;html=1;fillColor=#CCCCCC;strokeColor=#6881B3;gradientColor=none;gradientDirection=north;strokeWidth=2;shape=mxgraph.networks.firewall;rounded=0;shadow=0;comic=0;" parent="1" vertex="1">
          <mxGeometry x="1810" y="847" width="100" height="100" as="geometry" />
        </mxCell>
        <mxCell id="7c3789c024ecab99-52" style="edgeStyle=none;html=1;labelBackgroundColor=none;endArrow=none;endFill=0;strokeWidth=2;fontFamily=Verdana;fontSize=15;fontColor=#036897;" parent="1" source="S_OwnUnUDvWFl5J13V23-4" target="7c3789c024ecab99-8" edge="1">
          <mxGeometry relative="1" as="geometry">
            <mxPoint x="1659.9999999999995" y="917" as="targetPoint" />
          </mxGeometry>
        </mxCell>
        <mxCell id="7c3789c024ecab99-53" value="Internet" style="html=1;fillColor=#CCCCCC;strokeColor=#6881B3;gradientColor=none;gradientDirection=north;strokeWidth=2;shape=mxgraph.networks.cloud;fontColor=#6881B3;rounded=0;shadow=0;comic=0;align=center;fontSize=28;" parent="1" vertex="1">
          <mxGeometry x="2470" y="827" width="330" height="140" as="geometry" />
        </mxCell>
        <mxCell id="7c3789c024ecab99-56" style="edgeStyle=none;html=1;labelBackgroundColor=none;endArrow=none;endFill=0;strokeWidth=2;fontFamily=Verdana;fontSize=28;fontColor=#6881B3;entryX=0.06;entryY=0.5;entryDx=0;entryDy=0;entryPerimeter=0;" parent="1" target="7c3789c024ecab99-53" edge="1" source="HNdejGxliRvac_R6TdOd-27">
          <mxGeometry relative="1" as="geometry">
            <mxPoint x="1930" y="896.9999999999998" as="sourcePoint" />
          </mxGeometry>
        </mxCell>
        <mxCell id="S_OwnUnUDvWFl5J13V23-1" value="&lt;div&gt;&lt;span style=&quot;background-color: transparent; color: light-dark(rgb(0, 0, 0), rgb(255, 255, 255));&quot;&gt;Modem&lt;/span&gt;&lt;/div&gt;" style="text;html=1;align=center;verticalAlign=middle;whiteSpace=wrap;rounded=0;" parent="1" vertex="1">
          <mxGeometry x="1915" y="930" width="150" height="30" as="geometry" />
        </mxCell>
        <mxCell id="S_OwnUnUDvWFl5J13V23-5" value="" style="edgeStyle=none;html=1;labelBackgroundColor=none;endArrow=none;endFill=0;strokeWidth=2;fontFamily=Verdana;fontSize=15;fontColor=#036897;" parent="1" target="S_OwnUnUDvWFl5J13V23-4" edge="1">
          <mxGeometry relative="1" as="geometry">
            <mxPoint x="1700" y="897" as="targetPoint" />
            <mxPoint x="1400" y="897" as="sourcePoint" />
          </mxGeometry>
        </mxCell>
        <mxCell id="q_eoovqhWThHUl8G5-B9-2" style="edgeStyle=orthogonalEdgeStyle;rounded=0;orthogonalLoop=1;jettySize=auto;html=1;" parent="1" source="S_OwnUnUDvWFl5J13V23-4" target="q_eoovqhWThHUl8G5-B9-1" edge="1">
          <mxGeometry relative="1" as="geometry" />
        </mxCell>
        <mxCell id="S_OwnUnUDvWFl5J13V23-4" value="" style="fontColor=#0066CC;verticalAlign=top;verticalLabelPosition=bottom;labelPosition=center;align=center;html=1;fillColor=#CCCCCC;strokeColor=#6881B3;gradientColor=none;gradientDirection=north;strokeWidth=2;shape=mxgraph.networks.router;rounded=0;shadow=0;comic=0;" parent="1" vertex="1">
          <mxGeometry x="1660" y="882" width="100" height="30" as="geometry" />
        </mxCell>
        <mxCell id="S_OwnUnUDvWFl5J13V23-6" value="Router" style="text;html=1;align=center;verticalAlign=middle;whiteSpace=wrap;rounded=0;" parent="1" vertex="1">
          <mxGeometry x="1635" y="930" width="150" height="30" as="geometry" />
        </mxCell>
        <mxCell id="S_OwnUnUDvWFl5J13V23-9" value="&lt;div&gt;&lt;span style=&quot;background-color: transparent; color: light-dark(rgb(0, 0, 0), rgb(255, 255, 255));&quot;&gt;Parlem Router (CPE)&lt;/span&gt;&lt;/div&gt;" style="text;html=1;align=center;verticalAlign=middle;whiteSpace=wrap;rounded=0;" parent="1" vertex="1">
          <mxGeometry x="1915" y="690" width="150" height="30" as="geometry" />
        </mxCell>
        <mxCell id="S_OwnUnUDvWFl5J13V23-14" value="" style="edgeStyle=orthogonalEdgeStyle;rounded=0;orthogonalLoop=1;jettySize=auto;html=1;" parent="1" source="S_OwnUnUDvWFl5J13V23-10" target="S_OwnUnUDvWFl5J13V23-11" edge="1">
          <mxGeometry relative="1" as="geometry" />
        </mxCell>
        <mxCell id="S_OwnUnUDvWFl5J13V23-10" value="" style="fontColor=#0066CC;verticalAlign=top;verticalLabelPosition=bottom;labelPosition=center;align=center;html=1;outlineConnect=0;fillColor=#CCCCCC;strokeColor=#6881B3;gradientColor=none;gradientDirection=north;strokeWidth=2;shape=mxgraph.networks.router;" parent="1" vertex="1">
          <mxGeometry x="1310" y="882" width="90" height="30" as="geometry" />
        </mxCell>
        <mxCell id="S_OwnUnUDvWFl5J13V23-16" style="edgeStyle=orthogonalEdgeStyle;rounded=0;orthogonalLoop=1;jettySize=auto;html=1;" parent="1" source="S_OwnUnUDvWFl5J13V23-11" target="S_OwnUnUDvWFl5J13V23-15" edge="1">
          <mxGeometry relative="1" as="geometry" />
        </mxCell>
        <mxCell id="S_OwnUnUDvWFl5J13V23-11" value="" style="fontColor=#0066CC;verticalAlign=top;verticalLabelPosition=bottom;labelPosition=center;align=center;html=1;outlineConnect=0;fillColor=#CCCCCC;strokeColor=#6881B3;gradientColor=none;gradientDirection=north;strokeWidth=2;shape=mxgraph.networks.switch;" parent="1" vertex="1">
          <mxGeometry x="1120" y="882" width="100" height="30" as="geometry" />
        </mxCell>
        <mxCell id="S_OwnUnUDvWFl5J13V23-15" value="" style="fontColor=#0066CC;verticalAlign=top;verticalLabelPosition=bottom;labelPosition=center;align=center;html=1;outlineConnect=0;fillColor=#CCCCCC;strokeColor=#6881B3;gradientColor=none;gradientDirection=north;strokeWidth=2;shape=mxgraph.networks.wireless_hub;" parent="1" vertex="1">
          <mxGeometry x="890" y="854.5" width="100" height="85" as="geometry" />
        </mxCell>
        <mxCell id="S_OwnUnUDvWFl5J13V23-17" value="" style="fontColor=#0066CC;verticalAlign=top;verticalLabelPosition=bottom;labelPosition=center;align=center;html=1;outlineConnect=0;fillColor=#CCCCCC;strokeColor=#6881B3;gradientColor=none;gradientDirection=north;strokeWidth=2;shape=mxgraph.networks.wireless_hub;" parent="1" vertex="1">
          <mxGeometry x="920" y="1367.5" width="90" height="85" as="geometry" />
        </mxCell>
        <mxCell id="S_OwnUnUDvWFl5J13V23-18" style="edgeStyle=orthogonalEdgeStyle;rounded=0;orthogonalLoop=1;jettySize=auto;html=1;entryX=1;entryY=0.7;entryDx=0;entryDy=0;entryPerimeter=0;" parent="1" source="S_OwnUnUDvWFl5J13V23-11" target="S_OwnUnUDvWFl5J13V23-17" edge="1">
          <mxGeometry relative="1" as="geometry" />
        </mxCell>
        <mxCell id="S_OwnUnUDvWFl5J13V23-20" value="" style="sketch=0;pointerEvents=1;shadow=0;dashed=0;html=1;strokeColor=none;fillColor=#505050;labelPosition=center;verticalLabelPosition=bottom;verticalAlign=top;outlineConnect=0;align=center;shape=mxgraph.office.devices.webcam;" parent="1" vertex="1">
          <mxGeometry x="-110" y="757" width="40" height="50" as="geometry" />
        </mxCell>
        <mxCell id="S_OwnUnUDvWFl5J13V23-21" value="" style="sketch=0;pointerEvents=1;shadow=0;dashed=0;html=1;strokeColor=none;fillColor=#505050;labelPosition=center;verticalLabelPosition=bottom;verticalAlign=top;outlineConnect=0;align=center;shape=mxgraph.office.devices.cell_phone_iphone_proportional;" parent="1" vertex="1">
          <mxGeometry x="30" y="1365" width="40" height="60" as="geometry" />
        </mxCell>
        <mxCell id="S_OwnUnUDvWFl5J13V23-22" value="" style="sketch=0;pointerEvents=1;shadow=0;dashed=0;html=1;strokeColor=none;fillColor=#505050;labelPosition=center;verticalLabelPosition=bottom;verticalAlign=top;outlineConnect=0;align=center;shape=mxgraph.office.devices.tv;" parent="1" vertex="1">
          <mxGeometry x="-130" y="1350" width="100" height="90" as="geometry" />
        </mxCell>
        <mxCell id="S_OwnUnUDvWFl5J13V23-24" value="" style="sketch=0;pointerEvents=1;shadow=0;dashed=0;html=1;strokeColor=none;fillColor=#505050;labelPosition=center;verticalLabelPosition=bottom;verticalAlign=top;outlineConnect=0;align=center;shape=mxgraph.office.devices.laptop;" parent="1" vertex="1">
          <mxGeometry x="130" y="1355" width="120" height="80" as="geometry" />
        </mxCell>
        <mxCell id="S_OwnUnUDvWFl5J13V23-27" value="Home Devices" style="text;strokeColor=none;fillColor=none;html=1;fontSize=24;fontStyle=1;verticalAlign=middle;align=center;" parent="1" vertex="1">
          <mxGeometry x="-230" y="1275" width="100" height="40" as="geometry" />
        </mxCell>
        <mxCell id="S_OwnUnUDvWFl5J13V23-28" value="" style="shape=ext;double=1;rounded=1;whiteSpace=wrap;html=1;" parent="1" vertex="1">
          <mxGeometry x="-247" y="1010" width="630" height="200" as="geometry" />
        </mxCell>
        <mxCell id="S_OwnUnUDvWFl5J13V23-29" value="" style="sketch=0;pointerEvents=1;shadow=0;dashed=0;html=1;strokeColor=none;fillColor=#505050;labelPosition=center;verticalLabelPosition=bottom;verticalAlign=top;outlineConnect=0;align=center;shape=mxgraph.office.devices.cell_phone_iphone_proportional;" parent="1" vertex="1">
          <mxGeometry x="28" y="1069" width="40" height="60" as="geometry" />
        </mxCell>
        <mxCell id="S_OwnUnUDvWFl5J13V23-30" value="" style="sketch=0;pointerEvents=1;shadow=0;dashed=0;html=1;strokeColor=none;fillColor=#505050;labelPosition=center;verticalLabelPosition=bottom;verticalAlign=top;outlineConnect=0;align=center;shape=mxgraph.office.devices.tv;" parent="1" vertex="1">
          <mxGeometry x="-132" y="1054" width="100" height="90" as="geometry" />
        </mxCell>
        <mxCell id="S_OwnUnUDvWFl5J13V23-31" value="" style="sketch=0;pointerEvents=1;shadow=0;dashed=0;html=1;strokeColor=none;fillColor=#505050;labelPosition=center;verticalLabelPosition=bottom;verticalAlign=top;outlineConnect=0;align=center;shape=mxgraph.office.devices.laptop;" parent="1" vertex="1">
          <mxGeometry x="128" y="1059" width="120" height="80" as="geometry" />
        </mxCell>
        <mxCell id="S_OwnUnUDvWFl5J13V23-32" value="Guests Devices" style="text;strokeColor=none;fillColor=none;html=1;fontSize=24;fontStyle=1;verticalAlign=middle;align=center;" parent="1" vertex="1">
          <mxGeometry x="-220" y="970" width="100" height="40" as="geometry" />
        </mxCell>
        <mxCell id="S_OwnUnUDvWFl5J13V23-33" value="" style="fontColor=#0066CC;verticalAlign=top;verticalLabelPosition=bottom;labelPosition=center;align=center;html=1;outlineConnect=0;fillColor=#CCCCCC;strokeColor=#6881B3;gradientColor=none;gradientDirection=north;strokeWidth=2;shape=mxgraph.networks.video_projector;" parent="1" vertex="1">
          <mxGeometry x="30" y="765" width="100" height="35" as="geometry" />
        </mxCell>
        <mxCell id="S_OwnUnUDvWFl5J13V23-34" value="Icon" style="icon;html=1;image=img/clipart/Gear_128x128.png" parent="1" vertex="1">
          <mxGeometry x="190" y="747" width="60" height="60" as="geometry" />
        </mxCell>
        <mxCell id="S_OwnUnUDvWFl5J13V23-36" value="IoT Devices" style="text;strokeColor=none;fillColor=none;html=1;fontSize=24;fontStyle=1;verticalAlign=middle;align=center;" parent="1" vertex="1">
          <mxGeometry x="-220" y="640" width="100" height="40" as="geometry" />
        </mxCell>
        <mxCell id="q_eoovqhWThHUl8G5-B9-1" value="" style="fontColor=#0066CC;verticalAlign=top;verticalLabelPosition=bottom;labelPosition=center;align=center;html=1;outlineConnect=0;fillColor=#CCCCCC;strokeColor=#6881B3;gradientColor=none;gradientDirection=north;strokeWidth=2;shape=mxgraph.networks.wireless_hub;" parent="1" vertex="1">
          <mxGeometry x="1660" y="747" width="100" height="85" as="geometry" />
        </mxCell>
        <mxCell id="q_eoovqhWThHUl8G5-B9-3" value="" style="sketch=0;aspect=fixed;pointerEvents=1;shadow=0;dashed=0;html=1;strokeColor=none;labelPosition=center;verticalLabelPosition=bottom;verticalAlign=top;align=center;fillColor=#00188D;shape=mxgraph.mscae.enterprise.wireless_connection" parent="1" vertex="1">
          <mxGeometry x="1743" y="612" width="42" height="50" as="geometry" />
        </mxCell>
        <mxCell id="q_eoovqhWThHUl8G5-B9-4" style="edgeStyle=orthogonalEdgeStyle;rounded=0;orthogonalLoop=1;jettySize=auto;html=1;entryX=0;entryY=0.5;entryDx=0;entryDy=0;entryPerimeter=0;" parent="1" source="q_eoovqhWThHUl8G5-B9-1" target="q_eoovqhWThHUl8G5-B9-3" edge="1">
          <mxGeometry relative="1" as="geometry" />
        </mxCell>
        <mxCell id="q_eoovqhWThHUl8G5-B9-5" value="&lt;div&gt;&lt;span style=&quot;background-color: transparent; color: light-dark(rgb(0, 0, 0), rgb(255, 255, 255));&quot;&gt;bw_service&lt;/span&gt;&lt;/div&gt;" style="text;html=1;align=center;verticalAlign=middle;whiteSpace=wrap;rounded=0;" parent="1" vertex="1">
          <mxGeometry x="1640" y="600" width="150" height="30" as="geometry" />
        </mxCell>
        <mxCell id="q_eoovqhWThHUl8G5-B9-6" value="" style="sketch=0;aspect=fixed;pointerEvents=1;shadow=0;dashed=0;html=1;strokeColor=none;labelPosition=center;verticalLabelPosition=bottom;verticalAlign=top;align=center;fillColor=#00188D;shape=mxgraph.mscae.enterprise.wireless_connection" parent="1" vertex="1">
          <mxGeometry x="690" y="950" width="42" height="50" as="geometry" />
        </mxCell>
        <mxCell id="HNdejGxliRvac_R6TdOd-16" style="edgeStyle=orthogonalEdgeStyle;rounded=0;orthogonalLoop=1;jettySize=auto;html=1;entryX=1;entryY=0.5;entryDx=0;entryDy=0;strokeColor=light-dark(#000000,#FF0000);" edge="1" parent="1" source="q_eoovqhWThHUl8G5-B9-7" target="S_OwnUnUDvWFl5J13V23-35">
          <mxGeometry relative="1" as="geometry" />
        </mxCell>
        <mxCell id="q_eoovqhWThHUl8G5-B9-7" value="&lt;div&gt;&lt;span style=&quot;background-color: transparent; color: light-dark(rgb(0, 0, 0), rgb(255, 255, 255));&quot;&gt;7broadway&lt;/span&gt;&lt;/div&gt;" style="text;html=1;align=center;verticalAlign=middle;whiteSpace=wrap;rounded=0;" parent="1" vertex="1">
          <mxGeometry x="570" y="957.5" width="150" height="30" as="geometry" />
        </mxCell>
        <mxCell id="q_eoovqhWThHUl8G5-B9-8" value="&lt;div&gt;&lt;span style=&quot;background-color: transparent; color: light-dark(rgb(0, 0, 0), rgb(255, 255, 255));&quot;&gt;192.168.1.1&lt;/span&gt;&lt;/div&gt;" style="text;html=1;align=center;verticalAlign=middle;whiteSpace=wrap;rounded=0;" parent="1" vertex="1">
          <mxGeometry x="1510" y="890" width="150" height="30" as="geometry" />
        </mxCell>
        <mxCell id="HNdejGxliRvac_R6TdOd-1" value="&lt;div&gt;&lt;span style=&quot;background-color: transparent; color: light-dark(rgb(0, 0, 0), rgb(255, 255, 255));&quot;&gt;UCG Ultra&lt;/span&gt;&lt;/div&gt;" style="text;html=1;align=center;verticalAlign=middle;whiteSpace=wrap;rounded=0;" vertex="1" parent="1">
          <mxGeometry x="1280" y="852" width="150" height="30" as="geometry" />
        </mxCell>
        <mxCell id="HNdejGxliRvac_R6TdOd-3" value="&lt;div&gt;&lt;span style=&quot;background-color: transparent; color: light-dark(rgb(0, 0, 0), rgb(255, 255, 255));&quot;&gt;ubiquity site: fgi-canet&lt;/span&gt;&lt;/div&gt;" style="text;html=1;align=center;verticalAlign=middle;whiteSpace=wrap;rounded=0;" vertex="1" parent="1">
          <mxGeometry x="850" y="780" width="150" height="30" as="geometry" />
        </mxCell>
        <mxCell id="HNdejGxliRvac_R6TdOd-37" style="edgeStyle=orthogonalEdgeStyle;rounded=0;orthogonalLoop=1;jettySize=auto;html=1;exitX=0.5;exitY=0;exitDx=0;exitDy=0;strokeColor=light-dark(#000000,#00FF00);" edge="1" parent="1" source="HNdejGxliRvac_R6TdOd-4" target="HNdejGxliRvac_R6TdOd-34">
          <mxGeometry relative="1" as="geometry">
            <Array as="points" />
          </mxGeometry>
        </mxCell>
        <mxCell id="HNdejGxliRvac_R6TdOd-4" value="&lt;span style=&quot;color: rgb(33, 35, 39); font-family: &amp;quot;UI Sans&amp;quot;, Lato, Arial, sans-serif; font-size: 14px; font-style: normal; font-variant-ligatures: no-common-ligatures; font-variant-caps: normal; font-weight: 700; letter-spacing: normal; orphans: 2; text-align: left; text-indent: 0px; text-transform: none; widows: 2; word-spacing: 0px; -webkit-text-stroke-width: 0px; white-space: nowrap; background-color: rgb(255, 255, 255); text-decoration-thickness: initial; text-decoration-style: initial; text-decoration-color: initial; display: inline !important; float: none;&quot;&gt;USW Lite 8 PoE&lt;/span&gt;" style="text;whiteSpace=wrap;html=1;" vertex="1" parent="1">
          <mxGeometry x="1110" y="852" width="140" height="40" as="geometry" />
        </mxCell>
        <mxCell id="HNdejGxliRvac_R6TdOd-5" value="&lt;span style=&quot;color: rgb(33, 35, 39); font-family: &amp;quot;UI Sans&amp;quot;, Lato, Arial, sans-serif; font-size: 14px; font-style: normal; font-variant-ligatures: no-common-ligatures; font-variant-caps: normal; font-weight: 700; letter-spacing: normal; orphans: 2; text-align: left; text-indent: 0px; text-transform: none; widows: 2; word-spacing: 0px; -webkit-text-stroke-width: 0px; white-space: nowrap; background-color: rgb(255, 255, 255); text-decoration-thickness: initial; text-decoration-style: initial; text-decoration-color: initial; float: none; display: inline !important;&quot;&gt;IW HD (living room)&lt;/span&gt;" style="text;whiteSpace=wrap;html=1;" vertex="1" parent="1">
          <mxGeometry x="890" y="947" width="70" height="40" as="geometry" />
        </mxCell>
        <mxCell id="HNdejGxliRvac_R6TdOd-6" value="&lt;span style=&quot;color: rgb(33, 35, 39); font-family: &amp;quot;UI Sans&amp;quot;, Lato, Arial, sans-serif; font-size: 14px; font-style: normal; font-variant-ligatures: no-common-ligatures; font-variant-caps: normal; font-weight: 700; letter-spacing: normal; orphans: 2; text-align: left; text-indent: 0px; text-transform: none; widows: 2; word-spacing: 0px; -webkit-text-stroke-width: 0px; white-space: nowrap; background-color: rgb(255, 255, 255); text-decoration-thickness: initial; text-decoration-style: initial; text-decoration-color: initial; float: none; display: inline !important;&quot;&gt;AC IW (catedral)&lt;/span&gt;" style="text;whiteSpace=wrap;html=1;" vertex="1" parent="1">
          <mxGeometry x="910" y="1460" width="70" height="40" as="geometry" />
        </mxCell>
        <mxCell id="HNdejGxliRvac_R6TdOd-7" value="&lt;span style=&quot;color: rgb(128, 136, 147); font-family: &amp;quot;UI Sans&amp;quot;, Lato, Arial, sans-serif; font-size: 14px; font-style: normal; font-variant-ligatures: no-common-ligatures; font-variant-caps: normal; font-weight: 400; letter-spacing: normal; orphans: 2; text-align: start; text-indent: 0px; text-transform: none; widows: 2; word-spacing: 0px; -webkit-text-stroke-width: 0px; white-space: nowrap; background-color: rgb(255, 255, 255); text-decoration-thickness: initial; text-decoration-style: initial; text-decoration-color: initial; display: inline !important; float: none;&quot;&gt;192.168.1.139&lt;/span&gt;" style="text;whiteSpace=wrap;html=1;" vertex="1" parent="1">
          <mxGeometry x="1400" y="870" width="120" height="40" as="geometry" />
        </mxCell>
        <mxCell id="HNdejGxliRvac_R6TdOd-8" value="&lt;span style=&quot;color: rgb(128, 136, 147); font-family: &amp;quot;UI Sans&amp;quot;, Lato, Arial, sans-serif; font-size: 14px; font-style: normal; font-variant-ligatures: no-common-ligatures; font-variant-caps: normal; font-weight: 400; letter-spacing: normal; orphans: 2; text-align: start; text-indent: 0px; text-transform: none; widows: 2; word-spacing: 0px; -webkit-text-stroke-width: 0px; white-space: normal; background-color: rgb(255, 255, 255); text-decoration-thickness: initial; text-decoration-style: initial; text-decoration-color: initial; display: inline !important; float: none;&quot;&gt;192.168.0.1&lt;/span&gt;" style="text;whiteSpace=wrap;html=1;" vertex="1" parent="1">
          <mxGeometry x="1260" y="910" width="110" height="40" as="geometry" />
        </mxCell>
        <mxCell id="HNdejGxliRvac_R6TdOd-32" style="edgeStyle=orthogonalEdgeStyle;rounded=0;orthogonalLoop=1;jettySize=auto;html=1;strokeColor=light-dark(#000000,#00FF00);" edge="1" parent="1" source="HNdejGxliRvac_R6TdOd-9" target="HNdejGxliRvac_R6TdOd-31">
          <mxGeometry relative="1" as="geometry" />
        </mxCell>
        <mxCell id="HNdejGxliRvac_R6TdOd-9" value="&lt;span style=&quot;color: rgb(128, 136, 147); font-family: &amp;quot;UI Sans&amp;quot;, Lato, Arial, sans-serif; font-size: 14px; font-style: normal; font-variant-ligatures: no-common-ligatures; font-variant-caps: normal; font-weight: 400; letter-spacing: normal; orphans: 2; text-align: start; text-indent: 0px; text-transform: none; widows: 2; word-spacing: 0px; -webkit-text-stroke-width: 0px; white-space: normal; background-color: rgb(255, 255, 255); text-decoration-thickness: initial; text-decoration-style: initial; text-decoration-color: initial; display: inline !important; float: none;&quot;&gt;192.168.0.220&lt;/span&gt;" style="text;whiteSpace=wrap;html=1;" vertex="1" parent="1">
          <mxGeometry x="1110" y="912" width="120" height="40" as="geometry" />
        </mxCell>
        <mxCell id="HNdejGxliRvac_R6TdOd-10" value="&lt;span style=&quot;color: rgb(128, 136, 147); font-family: &amp;quot;UI Sans&amp;quot;, Lato, Arial, sans-serif; font-size: 14px; font-style: normal; font-variant-ligatures: no-common-ligatures; font-variant-caps: normal; font-weight: 400; letter-spacing: normal; orphans: 2; text-align: start; text-indent: 0px; text-transform: none; widows: 2; word-spacing: 0px; -webkit-text-stroke-width: 0px; white-space: normal; background-color: rgb(255, 255, 255); text-decoration-thickness: initial; text-decoration-style: initial; text-decoration-color: initial; display: inline !important; float: none;&quot;&gt;192.168.0.226&lt;/span&gt;" style="text;whiteSpace=wrap;html=1;" vertex="1" parent="1">
          <mxGeometry x="1030" y="1460" width="120" height="40" as="geometry" />
        </mxCell>
        <mxCell id="HNdejGxliRvac_R6TdOd-11" value="&lt;span style=&quot;color: rgb(128, 136, 147); font-family: &amp;quot;UI Sans&amp;quot;, Lato, Arial, sans-serif; font-size: 14px; font-style: normal; font-variant-ligatures: no-common-ligatures; font-variant-caps: normal; font-weight: 400; letter-spacing: normal; orphans: 2; text-align: start; text-indent: 0px; text-transform: none; widows: 2; word-spacing: 0px; -webkit-text-stroke-width: 0px; white-space: normal; background-color: rgb(255, 255, 255); text-decoration-thickness: initial; text-decoration-style: initial; text-decoration-color: initial; display: inline !important; float: none;&quot;&gt;192.168.0.162&lt;/span&gt;" style="text;whiteSpace=wrap;html=1;" vertex="1" parent="1">
          <mxGeometry x="885" y="970" width="120" height="40" as="geometry" />
        </mxCell>
        <mxCell id="HNdejGxliRvac_R6TdOd-12" value="" style="sketch=0;aspect=fixed;pointerEvents=1;shadow=0;dashed=0;html=1;strokeColor=none;labelPosition=center;verticalLabelPosition=bottom;verticalAlign=top;align=center;fillColor=#00188D;shape=mxgraph.mscae.enterprise.wireless_connection" vertex="1" parent="1">
          <mxGeometry x="710" y="1255" width="42" height="50" as="geometry" />
        </mxCell>
        <mxCell id="HNdejGxliRvac_R6TdOd-15" style="edgeStyle=orthogonalEdgeStyle;rounded=0;orthogonalLoop=1;jettySize=auto;html=1;strokeColor=light-dark(#000000,#00FF00);" edge="1" parent="1" source="HNdejGxliRvac_R6TdOd-13">
          <mxGeometry relative="1" as="geometry">
            <mxPoint x="380" y="1400" as="targetPoint" />
            <Array as="points">
              <mxPoint x="490" y="1278" />
              <mxPoint x="490" y="1400" />
            </Array>
          </mxGeometry>
        </mxCell>
        <mxCell id="HNdejGxliRvac_R6TdOd-25" style="edgeStyle=orthogonalEdgeStyle;rounded=0;orthogonalLoop=1;jettySize=auto;html=1;entryX=0;entryY=0.5;entryDx=0;entryDy=0;" edge="1" parent="1" source="HNdejGxliRvac_R6TdOd-13" target="S_OwnUnUDvWFl5J13V23-35">
          <mxGeometry relative="1" as="geometry" />
        </mxCell>
        <mxCell id="HNdejGxliRvac_R6TdOd-13" value="&lt;div&gt;&lt;span style=&quot;background-color: transparent; color: light-dark(rgb(0, 0, 0), rgb(255, 255, 255));&quot;&gt;broadway&lt;/span&gt;&lt;/div&gt;" style="text;html=1;align=center;verticalAlign=middle;whiteSpace=wrap;rounded=0;" vertex="1" parent="1">
          <mxGeometry x="590" y="1262.5" width="150" height="30" as="geometry" />
        </mxCell>
        <mxCell id="HNdejGxliRvac_R6TdOd-14" style="edgeStyle=orthogonalEdgeStyle;rounded=0;orthogonalLoop=1;jettySize=auto;html=1;entryX=1;entryY=0.5;entryDx=0;entryDy=0;strokeColor=light-dark(#000000,#FF0000);" edge="1" parent="1" target="S_OwnUnUDvWFl5J13V23-28">
          <mxGeometry relative="1" as="geometry">
            <mxPoint x="589.9999999999995" y="1275.4285714285716" as="sourcePoint" />
            <mxPoint x="383" y="1108" as="targetPoint" />
            <Array as="points">
              <mxPoint x="490" y="1275" />
              <mxPoint x="490" y="1110" />
            </Array>
          </mxGeometry>
        </mxCell>
        <mxCell id="HNdejGxliRvac_R6TdOd-17" style="edgeStyle=orthogonalEdgeStyle;rounded=0;orthogonalLoop=1;jettySize=auto;html=1;exitX=0;exitY=0.5;exitDx=0;exitDy=0;entryX=0.92;entryY=0.5;entryDx=0;entryDy=0;entryPerimeter=0;" edge="1" parent="1" source="HNdejGxliRvac_R6TdOd-2" target="q_eoovqhWThHUl8G5-B9-6">
          <mxGeometry relative="1" as="geometry" />
        </mxCell>
        <mxCell id="HNdejGxliRvac_R6TdOd-18" style="edgeStyle=orthogonalEdgeStyle;rounded=0;orthogonalLoop=1;jettySize=auto;html=1;entryX=0.92;entryY=0.5;entryDx=0;entryDy=0;entryPerimeter=0;" edge="1" parent="1" source="HNdejGxliRvac_R6TdOd-2" target="HNdejGxliRvac_R6TdOd-12">
          <mxGeometry relative="1" as="geometry">
            <Array as="points">
              <mxPoint x="790" y="1160" />
              <mxPoint x="790" y="1280" />
            </Array>
          </mxGeometry>
        </mxCell>
        <mxCell id="HNdejGxliRvac_R6TdOd-19" value="iot" style="text;html=1;align=center;verticalAlign=middle;whiteSpace=wrap;rounded=0;" vertex="1" parent="1">
          <mxGeometry x="400" y="740" width="60" height="30" as="geometry" />
        </mxCell>
        <mxCell id="HNdejGxliRvac_R6TdOd-20" value="guest" style="text;html=1;align=center;verticalAlign=middle;whiteSpace=wrap;rounded=0;" vertex="1" parent="1">
          <mxGeometry x="410" y="1084" width="60" height="30" as="geometry" />
        </mxCell>
        <mxCell id="HNdejGxliRvac_R6TdOd-21" value="trusted" style="text;html=1;align=center;verticalAlign=middle;whiteSpace=wrap;rounded=0;" vertex="1" parent="1">
          <mxGeometry x="410" y="1375" width="60" height="30" as="geometry" />
        </mxCell>
        <mxCell id="HNdejGxliRvac_R6TdOd-26" value="" style="fillColorStyles=neutralFill;neutralFill=#9DA6A8;shape=mxgraph.networks2.icon;aspect=fixed;fillColor=#EDEDED;strokeColor=#000000;gradientColor=#5B6163;network2IconShadow=1;network2bgFillColor=none;labelPosition=center;verticalLabelPosition=bottom;align=center;verticalAlign=top;network2Icon=mxgraph.networks2.global_server;network2IconW=1;network2IconH=1;" vertex="1" parent="1">
          <mxGeometry x="2250" y="872" width="50" height="50" as="geometry" />
        </mxCell>
        <mxCell id="HNdejGxliRvac_R6TdOd-28" value="" style="edgeStyle=none;html=1;labelBackgroundColor=none;endArrow=none;endFill=0;strokeWidth=2;fontFamily=Verdana;fontSize=28;fontColor=#6881B3;entryX=0.06;entryY=0.5;entryDx=0;entryDy=0;entryPerimeter=0;" edge="1" parent="1" target="HNdejGxliRvac_R6TdOd-27">
          <mxGeometry relative="1" as="geometry">
            <mxPoint x="1930" y="896.9999999999998" as="sourcePoint" />
            <mxPoint x="2490" y="897" as="targetPoint" />
          </mxGeometry>
        </mxCell>
        <mxCell id="HNdejGxliRvac_R6TdOd-27" value="&lt;span style=&quot;caret-color: rgb(49, 49, 49); font-family: &amp;quot;Microsoft YaHei&amp;quot;, Arial, SimSun, Verdana, Helvetica, sans-serif, Geneva; font-size: 12px; font-style: normal; font-variant-caps: normal; font-weight: 400; letter-spacing: normal; text-align: left; text-indent: 0px; text-transform: none; white-space: nowrap; word-spacing: 0px; -webkit-text-stroke-width: 0px; background-color: rgb(239, 248, 255); text-decoration: none; float: none; display: inline !important;&quot;&gt;100.76.141.11/255.255.0.0&lt;/span&gt;" style="text;whiteSpace=wrap;html=1;fontColor=light-dark(#000000,#FFFFFF);" vertex="1" parent="1">
          <mxGeometry x="2080" y="880" width="180" height="40" as="geometry" />
        </mxCell>
        <mxCell id="HNdejGxliRvac_R6TdOd-29" value="&lt;pre style=&quot;box-sizing: border-box; font-family: var(--bs-font-monospace); font-size: 16px; margin: 0px; display: block; overflow: visible; padding: 0px; width: 80ch; white-space: pre-wrap; caret-color: rgb(222, 226, 230); font-style: normal; font-variant-caps: normal; font-weight: 400; letter-spacing: normal; text-align: start; text-indent: 0px; text-transform: none; word-spacing: 0px; -webkit-text-stroke-width: 0px; text-decoration: none;&quot;&gt;Carrier-Grade NAT (CGN)&lt;/pre&gt;" style="text;whiteSpace=wrap;html=1;fillColor=#f5f5f5;fontColor=light-dark(#333333,#FFFFFF);strokeColor=#666666;" vertex="1" parent="1">
          <mxGeometry x="2200" y="930" width="170" height="60" as="geometry" />
        </mxCell>
        <mxCell id="HNdejGxliRvac_R6TdOd-30" value="93.176.130.152" style="text;whiteSpace=wrap;" vertex="1" parent="1">
          <mxGeometry x="2320" y="870" width="120" height="40" as="geometry" />
        </mxCell>
        <mxCell id="HNdejGxliRvac_R6TdOd-31" value="" style="sketch=0;pointerEvents=1;shadow=0;dashed=0;html=1;strokeColor=none;fillColor=#505050;labelPosition=center;verticalLabelPosition=bottom;verticalAlign=top;outlineConnect=0;align=center;shape=mxgraph.office.devices.laptop;" vertex="1" parent="1">
          <mxGeometry x="1141" y="1580" width="58" height="34" as="geometry" />
        </mxCell>
        <mxCell id="HNdejGxliRvac_R6TdOd-33" value="&lt;span style=&quot;color: rgb(33, 35, 39); font-family: &amp;quot;UI Sans&amp;quot;, Lato, Arial, sans-serif; font-size: 14px; font-style: normal; font-variant-ligatures: no-common-ligatures; font-variant-caps: normal; font-weight: 700; letter-spacing: normal; orphans: 2; text-align: left; text-indent: 0px; text-transform: none; widows: 2; word-spacing: 0px; -webkit-text-stroke-width: 0px; white-space: nowrap; background-color: rgb(255, 255, 255); text-decoration-thickness: initial; text-decoration-style: initial; text-decoration-color: initial; float: none; display: inline !important;&quot;&gt;Admin Laptop&lt;/span&gt;" style="text;whiteSpace=wrap;html=1;" vertex="1" parent="1">
          <mxGeometry x="1120" y="1620" width="70" height="40" as="geometry" />
        </mxCell>
        <mxCell id="HNdejGxliRvac_R6TdOd-34" value="" style="sketch=0;pointerEvents=1;shadow=0;dashed=0;html=1;strokeColor=none;fillColor=#505050;labelPosition=center;verticalLabelPosition=bottom;verticalAlign=top;outlineConnect=0;align=center;shape=mxgraph.office.servers.database_server_green;" vertex="1" parent="1">
          <mxGeometry x="1158.5" y="650" width="43" height="56" as="geometry" />
        </mxCell>
        <mxCell id="HNdejGxliRvac_R6TdOd-35" value="&lt;span style=&quot;color: rgb(33, 35, 39); font-family: &amp;quot;UI Sans&amp;quot;, Lato, Arial, sans-serif; font-size: 14px; font-style: normal; font-variant-ligatures: no-common-ligatures; font-variant-caps: normal; font-weight: 700; letter-spacing: normal; orphans: 2; text-align: left; text-indent: 0px; text-transform: none; widows: 2; word-spacing: 0px; -webkit-text-stroke-width: 0px; white-space: nowrap; background-color: rgb(255, 255, 255); text-decoration-thickness: initial; text-decoration-style: initial; text-decoration-color: initial; float: none; display: inline !important;&quot;&gt;NAS/Home Server&lt;/span&gt;" style="text;whiteSpace=wrap;html=1;" vertex="1" parent="1">
          <mxGeometry x="1114" y="720" width="70" height="40" as="geometry" />
        </mxCell>
        <mxCell id="S_OwnUnUDvWFl5J13V23-8" value="" style="fontColor=#0066CC;verticalAlign=top;verticalLabelPosition=bottom;labelPosition=center;align=center;html=1;outlineConnect=0;fillColor=#CCCCCC;strokeColor=#6881B3;gradientColor=none;gradientDirection=north;strokeWidth=2;shape=mxgraph.networks.modem;" parent="1" vertex="1">
          <mxGeometry x="1940" y="882" width="100" height="30" as="geometry" />
        </mxCell>
      </root>
    </mxGraphModel>
  </diagram>
</mxfile>
